<mxfile host="app.diagrams.net" modified="2023-08-27T12:12:50.618Z" agent="Mozilla/5.0 (Windows NT 10.0; Win64; x64) AppleWebKit/537.36 (KHTML, like Gecko) Chrome/116.0.0.0 Safari/537.36" etag="BIV86DtvGl_CIj9PZQAX" version="21.6.9" type="github">
  <diagram name="第 1 页" id="Y8m1zG7YkmczJ9cumg8B">
    <mxGraphModel dx="1050" dy="542" grid="0" gridSize="10" guides="1" tooltips="1" connect="1" arrows="1" fold="1" page="1" pageScale="1" pageWidth="827" pageHeight="1169" math="0" shadow="0">
      <root>
        <mxCell id="0" />
        <mxCell id="1" parent="0" />
        <mxCell id="H5pEt3jxYGkT5q6poo7g-10" style="rounded=0;orthogonalLoop=1;jettySize=auto;html=1;exitX=1;exitY=0.3333333333333333;exitDx=0;exitDy=0;exitPerimeter=0;entryX=0;entryY=0.5;entryDx=0;entryDy=0;" parent="1" source="H5pEt3jxYGkT5q6poo7g-1" target="H5pEt3jxYGkT5q6poo7g-4" edge="1">
          <mxGeometry relative="1" as="geometry" />
        </mxCell>
        <mxCell id="H5pEt3jxYGkT5q6poo7g-11" style="rounded=0;orthogonalLoop=1;jettySize=auto;html=1;exitX=1;exitY=0.3333333333333333;exitDx=0;exitDy=0;exitPerimeter=0;entryX=0;entryY=0.5;entryDx=0;entryDy=0;" parent="1" source="H5pEt3jxYGkT5q6poo7g-1" target="H5pEt3jxYGkT5q6poo7g-7" edge="1">
          <mxGeometry relative="1" as="geometry" />
        </mxCell>
        <mxCell id="H5pEt3jxYGkT5q6poo7g-12" style="rounded=0;orthogonalLoop=1;jettySize=auto;html=1;entryX=0;entryY=0.5;entryDx=0;entryDy=0;exitX=1;exitY=0.3333333333333333;exitDx=0;exitDy=0;exitPerimeter=0;" parent="1" source="H5pEt3jxYGkT5q6poo7g-1" target="H5pEt3jxYGkT5q6poo7g-9" edge="1">
          <mxGeometry relative="1" as="geometry">
            <mxPoint x="170" y="387" as="sourcePoint" />
          </mxGeometry>
        </mxCell>
        <mxCell id="H5pEt3jxYGkT5q6poo7g-13" style="rounded=0;orthogonalLoop=1;jettySize=auto;html=1;entryX=0;entryY=0.5;entryDx=0;entryDy=0;exitX=1;exitY=0.3333333333333333;exitDx=0;exitDy=0;exitPerimeter=0;" parent="1" source="H5pEt3jxYGkT5q6poo7g-1" target="H5pEt3jxYGkT5q6poo7g-8" edge="1">
          <mxGeometry relative="1" as="geometry">
            <mxPoint x="150" y="387" as="sourcePoint" />
          </mxGeometry>
        </mxCell>
        <mxCell id="SibevD1H6eJo3k4RsWcW-3" style="rounded=0;orthogonalLoop=1;jettySize=auto;html=1;entryX=0;entryY=0.5;entryDx=0;entryDy=0;" edge="1" parent="1" target="SibevD1H6eJo3k4RsWcW-1">
          <mxGeometry relative="1" as="geometry">
            <mxPoint x="136" y="373" as="sourcePoint" />
          </mxGeometry>
        </mxCell>
        <mxCell id="SibevD1H6eJo3k4RsWcW-4" style="rounded=0;orthogonalLoop=1;jettySize=auto;html=1;entryX=0;entryY=0.5;entryDx=0;entryDy=0;" edge="1" parent="1" target="SibevD1H6eJo3k4RsWcW-2">
          <mxGeometry relative="1" as="geometry">
            <mxPoint x="134" y="374" as="sourcePoint" />
          </mxGeometry>
        </mxCell>
        <mxCell id="H5pEt3jxYGkT5q6poo7g-1" value="用户" style="shape=umlActor;verticalLabelPosition=bottom;verticalAlign=top;html=1;" parent="1" vertex="1">
          <mxGeometry x="82" y="346" width="50" height="80" as="geometry" />
        </mxCell>
        <mxCell id="H5pEt3jxYGkT5q6poo7g-4" value="节点管理" style="ellipse;whiteSpace=wrap;html=1;" parent="1" vertex="1">
          <mxGeometry x="280" y="233" width="90" height="40" as="geometry" />
        </mxCell>
        <mxCell id="H5pEt3jxYGkT5q6poo7g-7" value="存储池管理" style="ellipse;whiteSpace=wrap;html=1;" parent="1" vertex="1">
          <mxGeometry x="280" y="279" width="90" height="40" as="geometry" />
        </mxCell>
        <mxCell id="H5pEt3jxYGkT5q6poo7g-8" value="存储池管理" style="ellipse;whiteSpace=wrap;html=1;" parent="1" vertex="1">
          <mxGeometry x="278" y="373" width="90" height="40" as="geometry" />
        </mxCell>
        <mxCell id="H5pEt3jxYGkT5q6poo7g-9" value="磁盘管理" style="ellipse;whiteSpace=wrap;html=1;" parent="1" vertex="1">
          <mxGeometry x="280" y="327" width="90" height="40" as="geometry" />
        </mxCell>
        <mxCell id="SibevD1H6eJo3k4RsWcW-1" value="告警管理" style="ellipse;whiteSpace=wrap;html=1;" vertex="1" parent="1">
          <mxGeometry x="276" y="419" width="90" height="40" as="geometry" />
        </mxCell>
        <mxCell id="SibevD1H6eJo3k4RsWcW-2" value="日志管理" style="ellipse;whiteSpace=wrap;html=1;" vertex="1" parent="1">
          <mxGeometry x="278" y="465" width="90" height="40" as="geometry" />
        </mxCell>
      </root>
    </mxGraphModel>
  </diagram>
</mxfile>
